<?xml version="1.0" standalone="no"?><!DOCTYPE svg PUBLIC "-//W3C//DTD SVG 1.1//EN" "http://www.w3.org/Graphics/SVG/1.1/DTD/svg11.dtd"><svg t="1544150559092" class="icon" style="" viewBox="0 0 1025 1024" version="1.1" xmlns="http://www.w3.org/2000/svg" p-id="3209" xmlns:xlink="http://www.w3.org/1999/xlink" width="200.1953125" height="200"><defs><style type="text/css"></style></defs><path d="M806.897627 1000.99241h-147.037381c-39.615294 0-71.902719-34.879379-71.902719-77.662617v-186.748673h-150.045327v186.748673c0 42.783238-32.287425 77.662617-71.934719 77.662617H218.9401c-39.615294 0-71.934719-34.879379-71.934719-77.662617V577.991945H71.966718C32.287425 577.991945 0 543.144565 0 500.329328a83.198518 83.198518 0 0 1 25.055554-59.006949C187.708656 294.444995 475.831524 26.193773 496.727152 6.706121a22.719595 22.719595 0 0 1 31.807433-0.447992c16.159712 15.071732 307.994514 286.87489 470.359622 434.48826 16.927698 14.62374 26.911521 36.47935 26.911521 59.550939 0 42.815237-32.287425 77.662617-71.934719 77.662617h-75.070663v345.369848c0.031999 42.783238-32.255425 77.662617-71.902719 77.662617zM414.936609 687.046002h195.996509c12.671774 0 22.975591 11.103802 22.975591 24.799558v211.484233c0 15.455725 11.647793 28.0635 25.983537 28.0635h147.037381c14.335745 0 26.015537-12.607775 26.015536-28.0635V553.160387c0-13.663757 10.271817-24.735559 22.975591-24.73556h98.014254c14.335745 0 26.015537-12.639775 26.015537-28.095499a27.743506 27.743506 0 0 0-10.14382-21.279621C824.369316 346.860062 576.245736 116.112172 512.918864 57.169222c-63.390871 58.94295-311.674448 289.65884-457.751847 421.560491a31.167445 31.167445 0 0 0-9.247835 21.599615c0 15.455725 11.647793 28.0955 26.015537 28.095499h98.014254c12.671774 0 22.975591 11.103802 22.975591 24.73556v370.169406c0 15.455725 11.679792 28.0635 26.015536 28.0635h147.037381c14.303745 0 26.015537-12.607775 26.015537-28.0635v-211.484233c-0.031999-13.727755 10.271817-24.799558 22.943591-24.799558z" p-id="3210"></path></svg>